<svg width="376" height="86" viewBox="0 0 376 86" fill="none" xmlns="http://www.w3.org/2000/svg">
<path d="M0 70.08H22.464V55.776L28.224 48.768L41.376 70.08H68.16L44.256 32.064L67.68 2.88H41.568L22.464 28.032V2.88H0V70.08Z" fill="black"/>
<path d="M69.357 13.92H91.917V0H69.357V13.92ZM69.741 70.08H91.533V17.664H69.741V70.08Z" fill="black"/>
<path d="M119.26 71.328C127.229 71.328 131.26 67.488 134.812 63.648V70.08H156.605V0H134.812V23.616C131.452 19.872 127.036 16.416 119.068 16.416C106.684 16.416 96.7005 27.456 96.7005 44.064V44.256C96.7005 60.288 106.589 71.328 119.26 71.328ZM126.557 53.376C121.564 53.376 117.82 49.248 117.82 43.968V43.776C117.82 38.496 121.564 34.368 126.557 34.368C131.549 34.368 135.293 38.592 135.293 43.776V43.968C135.293 49.248 131.549 53.376 126.557 53.376Z" fill="black"/>
<path d="M161.288 70.08H212.743V52.992H191.336L212.743 31.296V17.664H162.152V34.752H182.6L161.288 56.448V70.08Z" fill="black"/>
<path d="M215.381 70.08H266.837V52.992H245.429L266.837 31.296V17.664H216.245V34.752H236.693L215.381 56.448V70.08Z" fill="black"/>
<path d="M271.491 70.08H293.283V0H271.491V70.08Z" fill="black"/>
<path d="M328.69 45.312L319.57 17.664H297.01L317.555 68.064C316.402 68.64 315.25 68.832 314.003 68.832C311.987 68.832 308.339 67.584 304.402 65.376L298.066 80.256C303.922 83.52 310.739 85.728 318.323 85.728C330.419 85.728 335.986 80.16 341.074 66.432L359.219 17.664H337.043L328.69 45.312Z" fill="black"/>
<path d="M353.591 70.08H375.863V48H353.591V70.08Z" fill="black"/>
</svg>
