<svg width="353" height="347" viewBox="0 0 353 347" fill="none" xmlns="http://www.w3.org/2000/svg">
<mask id="mask0" mask-type="alpha" maskUnits="userSpaceOnUse" x="0" y="-8" width="353" height="355">
<rect x="0.0800781" y="-8" width="352.92" height="355" fill="#C4C4C4"/>
</mask>
<g mask="url(#mask0)">
<rect x="148.459" y="169.847" width="133.818" height="133.818" fill="#F0F0F0"/>
<circle cx="256.796" cy="43.4819" r="198.821" fill="#94C1D9"/>
<rect x="117.019" y="60.0146" width="21.5938" height="21.5938" transform="rotate(-45 117.019 60.0146)" fill="#F0F0F0"/>
<path fill-rule="evenodd" clip-rule="evenodd" d="M116.111 193.603V198.142H117.111V193.603H121.557V192.603H117.111V188.157L116.111 188.157V192.603H111.573V193.603H116.111Z" fill="black"/>
<path fill-rule="evenodd" clip-rule="evenodd" d="M116.111 146.404V150.943H117.111V146.404H121.557V145.404H117.111V140.958L116.111 140.958V145.404H111.573V146.404H116.111Z" fill="black"/>
<path fill-rule="evenodd" clip-rule="evenodd" d="M116.111 240.802V245.341H117.111V240.802H121.557V239.802H117.111V235.356L116.111 235.356V239.802H111.573V240.802H116.111Z" fill="black"/>
<path fill-rule="evenodd" clip-rule="evenodd" d="M116.111 217.203V221.741H117.111V217.203H121.557V216.203H117.111V211.757L116.111 211.757V216.203H111.573V217.203H116.111Z" fill="black"/>
<path fill-rule="evenodd" clip-rule="evenodd" d="M116.111 170.004V174.542H117.111V170.004H121.557V169.004H117.111V164.558L116.111 164.558V169.004H111.573V170.004H116.111Z" fill="black"/>
<path fill-rule="evenodd" clip-rule="evenodd" d="M116.111 264.402V268.94H117.111V264.402H121.557V263.402H117.111V258.956L116.111 258.956V263.402H111.573V264.402H116.111Z" fill="black"/>
<path fill-rule="evenodd" clip-rule="evenodd" d="M139.71 193.603V198.142H140.71V193.603H145.156V192.603H140.71V188.157L139.71 188.157V192.603H135.172V193.603H139.71Z" fill="black"/>
<path fill-rule="evenodd" clip-rule="evenodd" d="M139.71 146.404V150.943H140.71V146.404H145.156V145.404H140.71V140.958L139.71 140.958V145.404H135.172V146.404H139.71Z" fill="black"/>
<path fill-rule="evenodd" clip-rule="evenodd" d="M139.71 240.802V245.341H140.71V240.802H145.156V239.802H140.71V235.356L139.71 235.356V239.802H135.172V240.802H139.71Z" fill="black"/>
<path fill-rule="evenodd" clip-rule="evenodd" d="M139.71 217.203V221.741H140.71V217.203H145.156V216.203H140.71V211.757L139.71 211.757V216.203H135.172V217.203H139.71Z" fill="black"/>
<path fill-rule="evenodd" clip-rule="evenodd" d="M139.71 170.004V174.542H140.71V170.004H145.156V169.004H140.71V164.558L139.71 164.558V169.004H135.172V170.004H139.71Z" fill="black"/>
<path fill-rule="evenodd" clip-rule="evenodd" d="M139.71 264.402V268.94H140.71V264.402H145.156V263.402H140.71V258.956L139.71 258.956V263.402H135.172V264.402H139.71Z" fill="black"/>
<path fill-rule="evenodd" clip-rule="evenodd" d="M163.31 193.603V198.142H164.31V193.603H168.756V192.603H164.31V188.157L163.31 188.157V192.603H158.771V193.603H163.31Z" fill="black"/>
<path fill-rule="evenodd" clip-rule="evenodd" d="M163.31 146.404V150.943H164.31V146.404H168.756V145.404H164.31V140.958L163.31 140.958V145.404H158.771V146.404H163.31Z" fill="black"/>
<path fill-rule="evenodd" clip-rule="evenodd" d="M163.31 240.802V245.341H164.31V240.802H168.756V239.802H164.31V235.356L163.31 235.356V239.802H158.771V240.802H163.31Z" fill="black"/>
<path fill-rule="evenodd" clip-rule="evenodd" d="M163.31 217.203V221.741H164.31V217.203H168.756V216.203H164.31V211.757L163.31 211.757V216.203H158.771V217.203H163.31Z" fill="black"/>
<path fill-rule="evenodd" clip-rule="evenodd" d="M163.31 170.004V174.542H164.31V170.004H168.756V169.004H164.31V164.558L163.31 164.558V169.004H158.771V170.004H163.31Z" fill="black"/>
<path fill-rule="evenodd" clip-rule="evenodd" d="M163.31 264.402V268.94H164.31V264.402H168.756V263.402H164.31V258.956L163.31 258.956V263.402H158.771V264.402H163.31Z" fill="black"/>
<path fill-rule="evenodd" clip-rule="evenodd" d="M186.909 193.603V198.142H187.909V193.603H192.355V192.603H187.909V188.157L186.909 188.157V192.603H182.371V193.603H186.909Z" fill="black"/>
<path fill-rule="evenodd" clip-rule="evenodd" d="M186.909 146.404V150.943H187.909V146.404H192.355V145.404H187.909V140.958L186.909 140.958V145.404H182.371V146.404H186.909Z" fill="black"/>
<path fill-rule="evenodd" clip-rule="evenodd" d="M186.909 240.802V245.341H187.909V240.802H192.355V239.802H187.909V235.356L186.909 235.356V239.802H182.371V240.802H186.909Z" fill="black"/>
<path fill-rule="evenodd" clip-rule="evenodd" d="M186.909 217.203V221.741H187.909V217.203H192.355V216.203H187.909V211.757L186.909 211.757V216.203H182.371V217.203H186.909Z" fill="black"/>
<path fill-rule="evenodd" clip-rule="evenodd" d="M186.909 170.004V174.542H187.909V170.004H192.355V169.004H187.909V164.558L186.909 164.558V169.004H182.371V170.004H186.909Z" fill="black"/>
<path fill-rule="evenodd" clip-rule="evenodd" d="M186.909 264.402V268.94H187.909V264.402H192.355V263.402H187.909V258.956L186.909 258.956V263.402H182.371V264.402H186.909Z" fill="black"/>
<path fill-rule="evenodd" clip-rule="evenodd" d="M210.509 193.603V198.142H211.509V193.603H215.955V192.603H211.509V188.157L210.509 188.157V192.603H205.97V193.603H210.509Z" fill="black"/>
<path fill-rule="evenodd" clip-rule="evenodd" d="M210.509 146.404V150.943H211.509V146.404H215.955V145.404H211.509V140.958L210.509 140.958V145.404H205.97V146.404H210.509Z" fill="black"/>
<path fill-rule="evenodd" clip-rule="evenodd" d="M210.509 240.802V245.341H211.509V240.802H215.955V239.802H211.509V235.356L210.509 235.356V239.802H205.97V240.802H210.509Z" fill="black"/>
<path fill-rule="evenodd" clip-rule="evenodd" d="M210.509 217.203V221.741H211.509V217.203H215.955V216.203H211.509V211.757L210.509 211.757V216.203H205.97V217.203H210.509Z" fill="black"/>
<path fill-rule="evenodd" clip-rule="evenodd" d="M210.509 170.004V174.542H211.509V170.004H215.955V169.004H211.509V164.558L210.509 164.558V169.004H205.97V170.004H210.509Z" fill="black"/>
<path fill-rule="evenodd" clip-rule="evenodd" d="M210.509 264.402V268.94H211.509V264.402H215.955V263.402H211.509V258.956L210.509 258.956V263.402H205.97V264.402H210.509Z" fill="black"/>
<path fill-rule="evenodd" clip-rule="evenodd" d="M234.108 193.603V198.142H235.108V193.603H239.554V192.603H235.108V188.157L234.108 188.157V192.603H229.57V193.603H234.108Z" fill="black"/>
<path fill-rule="evenodd" clip-rule="evenodd" d="M234.108 146.404V150.943H235.108V146.404H239.554V145.404H235.108V140.958L234.108 140.958V145.404H229.57V146.404H234.108Z" fill="black"/>
<path fill-rule="evenodd" clip-rule="evenodd" d="M234.108 240.802V245.341H235.108V240.802H239.554V239.802H235.108V235.356L234.108 235.356V239.802H229.57V240.802H234.108Z" fill="black"/>
<path fill-rule="evenodd" clip-rule="evenodd" d="M234.108 217.203V221.741H235.108V217.203H239.554V216.203H235.108V211.757L234.108 211.757V216.203H229.57V217.203H234.108Z" fill="black"/>
<path fill-rule="evenodd" clip-rule="evenodd" d="M234.108 170.004V174.542H235.108V170.004H239.554V169.004H235.108V164.558L234.108 164.558V169.004H229.57V170.004H234.108Z" fill="black"/>
<path fill-rule="evenodd" clip-rule="evenodd" d="M234.108 264.402V268.94H235.108V264.402H239.554V263.402H235.108V258.956L234.108 258.956V263.402H229.57V264.402H234.108Z" fill="black"/>
<rect x="0.0800781" y="15.9209" width="121.338" height="6.24023" fill="black"/>
<path d="M239.809 1.36035L253.169 23.2012H226.449L239.809 1.36035Z" fill="black"/>
<path d="M282.104 140.726L295.464 162.566H268.744L282.104 140.726Z" fill="black"/>
<path d="M335.666 51.6289L322.156 30.0481L349.177 30.0481L335.666 51.6289Z" fill="#F0F0F0"/>
<rect x="146.032" y="82.1367" width="150.806" height="19.4141" fill="#E64A4A"/>
<path d="M183.127 335.213L209.258 308.865L235.389 335.213L261.52 308.865L287.651 335.213L313.782 308.865L339.913 335.213L366.044 308.865L392.175 335.213" stroke="#ECB22E"/>
<path d="M183.127 326.546L209.258 300.198L235.389 326.546L261.52 300.198L287.651 326.546L313.782 300.198L339.913 326.546L366.044 300.198L392.175 326.546" stroke="#ECB22E"/>
</g>
</svg>
